<svg width="206" height="205" viewBox="0 0 206 205" fill="none" xmlns="http://www.w3.org/2000/svg">
<path d="M103.168 204.87H102.718C46.4818 204.87 0.728516 159.103 0.728516 102.85V102.4C0.728516 46.1467 46.4818 0.380005 102.718 0.380005H103.168C159.405 0.380005 205.158 46.1467 205.158 102.4V102.85C205.158 159.103 159.405 204.87 103.168 204.87ZM102.718 7.30177C50.2946 7.30177 7.64824 49.9606 7.64824 102.4V102.85C7.64824 155.289 50.2946 197.948 102.718 197.948H103.168C155.592 197.948 198.238 155.289 198.238 102.85V102.4C198.238 49.9606 155.592 7.30177 103.168 7.30177H102.718Z" fill="#007EBB"/>
<path d="M51.291 69.5076C48.6892 67.0919 47.3953 64.1017 47.3953 60.5439C47.3953 56.9861 48.6962 53.8644 51.291 51.4418C53.8929 49.0261 57.242 47.8148 61.3454 47.8148C65.4488 47.8148 68.6665 49.0261 71.2614 51.4418C73.8633 53.8575 75.1572 56.8962 75.1572 60.5439C75.1572 64.1917 73.8563 67.0919 71.2614 69.5076C68.6596 71.9233 65.3589 73.1346 61.3454 73.1346C57.332 73.1346 53.8929 71.9233 51.291 69.5076ZM72.9706 83.3649V157.428H49.575V83.3649H72.9706Z" fill="#007EBB"/>
<path d="M150.852 90.6813C155.952 96.2187 158.498 103.819 158.498 113.495V156.12H136.279V116.5C136.279 111.62 135.013 107.826 132.487 105.127C129.962 102.427 126.557 101.071 122.294 101.071C118.032 101.071 114.627 102.421 112.102 105.127C109.576 107.826 108.31 111.62 108.31 116.5V156.12H85.959V83.1573H108.31V92.8339C110.572 89.6083 113.624 87.0612 117.458 85.1854C121.291 83.3096 125.602 82.3752 130.397 82.3752C138.936 82.3752 145.759 85.1439 150.852 90.6813Z" fill="#007EBB"/>
</svg>
