<svg width="205" height="206" viewBox="0 0 205 206" fill="none" xmlns="http://www.w3.org/2000/svg">
<path d="M102.484 205.199H102.035C45.7979 205.199 0.0447998 159.432 0.0447998 103.179V102.729C0.0447998 46.4759 45.7979 0.709229 102.035 0.709229H102.484C158.721 0.709229 204.474 46.4759 204.474 102.729V103.179C204.474 159.432 158.721 205.199 102.484 205.199ZM102.035 7.63099C49.6107 7.63099 6.96452 50.2898 6.96452 102.729V103.179C6.96452 155.618 49.6107 198.277 102.035 198.277H102.484C154.908 198.277 197.554 155.618 197.554 103.179V102.729C197.554 50.2898 154.908 7.63099 102.484 7.63099H102.035Z" fill="#00B0F2"/>
<path d="M40.9125 99.5867C41.1893 99.4483 41.4662 99.3168 41.7361 99.1922C46.4277 97.0188 51.1815 94.9838 55.9285 92.9488C56.1845 92.9488 56.6134 92.6511 56.8556 92.5542C57.2223 92.395 57.5891 92.2428 57.9559 92.0836C58.6617 91.779 59.3676 91.4813 60.0664 91.1768C61.4781 90.5746 62.8827 89.9724 64.2943 89.3702C67.1106 88.1658 69.9269 86.9614 72.7433 85.7501C78.3759 83.3414 84.0156 80.9257 89.6483 78.5169C95.2809 76.1082 100.92 73.6924 106.553 71.2836C112.186 68.8749 117.825 66.4592 123.458 64.0504C129.091 61.6417 134.73 59.2259 140.363 56.8171C141.615 56.2772 142.972 55.4744 144.314 55.239C145.442 55.0383 146.542 54.6507 147.677 54.4361C149.829 54.0277 152.202 53.8616 154.265 54.7545C154.977 55.0659 155.635 55.502 156.181 56.0488C158.797 58.6376 158.43 62.8875 157.877 66.5284C154.022 91.9036 150.168 117.286 146.307 142.661C145.781 146.142 145.061 149.963 142.314 152.164C139.989 154.026 136.682 154.234 133.81 153.445C130.938 152.649 128.406 150.981 125.921 149.34C115.618 142.516 105.308 135.691 95.0041 128.866C92.5545 127.246 89.8282 125.128 89.8559 122.186C89.8697 120.414 90.9284 118.836 92.0078 117.431C100.962 105.747 113.881 97.7178 123.493 86.5738C124.849 85.0025 125.915 82.1647 124.053 81.2579C122.946 80.718 121.673 81.4518 120.662 82.1509C107.958 90.9761 95.2602 99.8082 82.5555 108.633C78.4106 111.513 74.0651 114.475 69.069 115.181C64.5989 115.818 60.1011 114.572 55.7762 113.299C52.1503 112.233 48.5312 111.139 44.926 110.011C43.0092 109.416 41.0302 108.772 39.5494 107.422C38.0685 106.072 37.2175 103.802 38.1102 102.002C38.6707 100.874 39.7571 100.161 40.8988 99.5798L40.9125 99.5867Z" fill="#00B0F2"/>
</svg>
